<svg id="visual" viewBox="0 0 960 540" width="960" height="540" xmlns="http://www.w3.org/2000/svg" xmlns:xlink="http://www.w3.org/1999/xlink" version="1.1"><g transform="translate(452.3565666958357 332.11237526166906)"><path d="M145.3 -183.5C200.6 -126.8 266.2 -92.6 302.2 -32.1C338.2 28.5 344.5 115.5 300.9 157.7C257.4 199.8 164.1 197.2 94.1 195.1C24.1 193.1 -22.6 191.7 -83.7 187.8C-144.9 183.9 -220.5 177.4 -254.1 137.8C-287.7 98.1 -279.3 25.2 -252.9 -30.8C-226.6 -86.7 -182.4 -125.7 -137.3 -184.3C-92.1 -242.8 -46.1 -320.9 -0.5 -320.3C45 -319.6 90 -240.2 145.3 -183.5" fill="#791717"></path></g></svg>