<svg id="visual" viewBox="0 0 960 540" width="960" height="540" xmlns="http://www.w3.org/2000/svg" xmlns:xlink="http://www.w3.org/1999/xlink" version="1.1"><g transform="translate(472.2734638258142 284.70428053259957)"><path d="M147.6 -152.5C203.9 -128.6 270.8 -94.1 283.4 -46.5C295.9 1.1 254 61.8 212 110.9C170 160 127.7 197.4 78.6 214.9C29.4 232.4 -26.7 229.9 -91.2 219.8C-155.6 209.6 -228.5 191.8 -255.7 146.7C-283 101.5 -264.6 29.1 -257.8 -51.6C-250.9 -132.4 -255.6 -221.3 -214.6 -247.8C-173.6 -274.3 -86.8 -238.4 -20.6 -213.9C45.6 -189.4 91.3 -176.3 147.6 -152.5" fill="#791717"></path></g></svg>