<svg id="visual" viewBox="0 0 960 540" width="960" height="540" xmlns="http://www.w3.org/2000/svg" xmlns:xlink="http://www.w3.org/1999/xlink" version="1.1"><g transform="translate(474.6582732998979 263.8473580456616)"><path d="M121.1 -153.3C155.4 -115.5 180.6 -75.9 217.4 -16.3C254.1 43.3 302.4 122.9 285 175.3C267.6 227.7 184.4 252.9 111.9 257.9C39.3 262.8 -22.6 247.5 -70.3 218.9C-118.1 190.4 -151.7 148.7 -191.1 100.6C-230.6 52.5 -275.8 -2.1 -277.9 -59.2C-280 -116.4 -239 -176.2 -185.5 -210.6C-132 -245 -66 -254 -11.3 -240.5C43.4 -227 86.8 -191.1 121.1 -153.3" fill="#791717"></path></g></svg>