<svg id="visual" viewBox="0 0 960 540" width="960" height="540" xmlns="http://www.w3.org/2000/svg" xmlns:xlink="http://www.w3.org/1999/xlink" version="1.1"><g transform="translate(495.2074119270861 241.8127820279281)"><path d="M174.3 -202.2C218.2 -170.8 241.1 -108.7 251 -45.3C260.8 18 257.7 82.5 233.1 143.5C208.5 204.5 162.4 262 103.9 281.5C45.5 301 -25.3 282.5 -103.1 263C-181 243.5 -265.9 223 -283.1 173.1C-300.3 123.3 -249.9 44.1 -223 -27.4C-196.2 -98.8 -192.9 -162.4 -159.7 -195.7C-126.4 -229 -63.2 -232 1 -233.1C65.1 -234.3 130.3 -233.6 174.3 -202.2" fill="#791717"></path></g></svg>