<svg id="visual" viewBox="0 0 960 300" width="960" height="300" xmlns="http://www.w3.org/2000/svg" xmlns:xlink="http://www.w3.org/1999/xlink" version="1.1"><path d="M0 84L20 80.3C40 76.7 80 69.3 120 67.7C160 66 200 70 240 74.3C280 78.7 320 83.3 360 83.8C400 84.3 440 80.7 480 77C520 73.3 560 69.7 600 70.7C640 71.7 680 77.3 720 81.8C760 86.3 800 89.7 840 89.8C880 90 920 87 940 85.5L960 84L960 0L940 0C920 0 880 0 840 0C800 0 760 0 720 0C680 0 640 0 600 0C560 0 520 0 480 0C440 0 400 0 360 0C320 0 280 0 240 0C200 0 160 0 120 0C80 0 40 0 20 0L0 0Z" fill="#ffb23e"></path><path d="M0 63L20 61.7C40 60.3 80 57.7 120 55.8C160 54 200 53 240 53C280 53 320 54 360 56C400 58 440 61 480 59.7C520 58.3 560 52.7 600 52.7C640 52.7 680 58.3 720 59.7C760 61 800 58 840 55.8C880 53.7 920 52.3 940 51.7L960 51L960 0L940 0C920 0 880 0 840 0C800 0 760 0 720 0C680 0 640 0 600 0C560 0 520 0 480 0C440 0 400 0 360 0C320 0 280 0 240 0C200 0 160 0 120 0C80 0 40 0 20 0L0 0Z" fill="#bb5d23"></path><path d="M0 27L20 25.5C40 24 80 21 120 20.8C160 20.7 200 23.3 240 26.3C280 29.3 320 32.7 360 31.3C400 30 440 24 480 21.3C520 18.7 560 19.3 600 20.8C640 22.3 680 24.7 720 26.7C760 28.7 800 30.3 840 31C880 31.7 920 31.3 940 31.2L960 31L960 0L940 0C920 0 880 0 840 0C800 0 760 0 720 0C680 0 640 0 600 0C560 0 520 0 480 0C440 0 400 0 360 0C320 0 280 0 240 0C200 0 160 0 120 0C80 0 40 0 20 0L0 0Z" fill="#6d0d0d"></path></svg>