<svg id="visual" viewBox="0 0 960 300" width="960" height="300" xmlns="http://www.w3.org/2000/svg" xmlns:xlink="http://www.w3.org/1999/xlink" version="1.1"><path d="M0 97L26.7 97.2C53.3 97.3 106.7 97.7 160 91.5C213.3 85.3 266.7 72.7 320 66.5C373.3 60.3 426.7 60.7 480 64.3C533.3 68 586.7 75 640 77.7C693.3 80.3 746.7 78.7 800 77.2C853.3 75.7 906.7 74.3 933.3 73.7L960 73L960 0L933.3 0C906.7 0 853.3 0 800 0C746.7 0 693.3 0 640 0C586.7 0 533.3 0 480 0C426.7 0 373.3 0 320 0C266.7 0 213.3 0 160 0C106.7 0 53.3 0 26.7 0L0 0Z" fill="#420c0c"></path><path d="M0 63L26.7 65.8C53.3 68.7 106.7 74.3 160 75.3C213.3 76.3 266.7 72.7 320 68C373.3 63.3 426.7 57.7 480 55C533.3 52.3 586.7 52.7 640 52.8C693.3 53 746.7 53 800 52.3C853.3 51.7 906.7 50.3 933.3 49.7L960 49L960 0L933.3 0C906.7 0 853.3 0 800 0C746.7 0 693.3 0 640 0C586.7 0 533.3 0 480 0C426.7 0 373.3 0 320 0C266.7 0 213.3 0 160 0C106.7 0 53.3 0 26.7 0L0 0Z" fill="#742e1f"></path><path d="M0 61L26.7 58.3C53.3 55.7 106.7 50.3 160 49.3C213.3 48.3 266.7 51.7 320 50.5C373.3 49.3 426.7 43.7 480 40.7C533.3 37.7 586.7 37.3 640 39C693.3 40.7 746.7 44.3 800 45.2C853.3 46 906.7 44 933.3 43L960 42L960 0L933.3 0C906.7 0 853.3 0 800 0C746.7 0 693.3 0 640 0C586.7 0 533.3 0 480 0C426.7 0 373.3 0 320 0C266.7 0 213.3 0 160 0C106.7 0 53.3 0 26.7 0L0 0Z" fill="#a6552d"></path><path d="M0 41L26.7 41.5C53.3 42 106.7 43 160 41.5C213.3 40 266.7 36 320 32.5C373.3 29 426.7 26 480 24.8C533.3 23.7 586.7 24.3 640 28.2C693.3 32 746.7 39 800 42.5C853.3 46 906.7 46 933.3 46L960 46L960 0L933.3 0C906.7 0 853.3 0 800 0C746.7 0 693.3 0 640 0C586.7 0 533.3 0 480 0C426.7 0 373.3 0 320 0C266.7 0 213.3 0 160 0C106.7 0 53.3 0 26.7 0L0 0Z" fill="#d58239"></path><path d="M0 24L26.7 24.3C53.3 24.7 106.7 25.3 160 25.2C213.3 25 266.7 24 320 24.3C373.3 24.7 426.7 26.3 480 24.8C533.3 23.3 586.7 18.7 640 16.3C693.3 14 746.7 14 800 15.2C853.3 16.3 906.7 18.7 933.3 19.8L960 21L960 0L933.3 0C906.7 0 853.3 0 800 0C746.7 0 693.3 0 640 0C586.7 0 533.3 0 480 0C426.7 0 373.3 0 320 0C266.7 0 213.3 0 160 0C106.7 0 53.3 0 26.7 0L0 0Z" fill="#ffb444"></path></svg>