<svg id="visual" viewBox="0 0 960 200" width="960" height="200" xmlns="http://www.w3.org/2000/svg" xmlns:xlink="http://www.w3.org/1999/xlink" version="1.1"><path d="M0 141L20 139.5C40 138 80 135 120 135.8C160 136.7 200 141.3 240 141.5C280 141.7 320 137.3 360 135.8C400 134.3 440 135.7 480 138C520 140.3 560 143.7 600 144.8C640 146 680 145 720 145.2C760 145.3 800 146.7 840 146.8C880 147 920 146 940 145.5L960 145L960 201L940 201C920 201 880 201 840 201C800 201 760 201 720 201C680 201 640 201 600 201C560 201 520 201 480 201C440 201 400 201 360 201C320 201 280 201 240 201C200 201 160 201 120 201C80 201 40 201 20 201L0 201Z" fill="#ffb23e"></path><path d="M0 157L20 155.7C40 154.3 80 151.7 120 152.7C160 153.7 200 158.3 240 159C280 159.7 320 156.3 360 154.3C400 152.3 440 151.7 480 152.8C520 154 560 157 600 157.3C640 157.7 680 155.3 720 154.2C760 153 800 153 840 153.7C880 154.3 920 155.7 940 156.3L960 157L960 201L940 201C920 201 880 201 840 201C800 201 760 201 720 201C680 201 640 201 600 201C560 201 520 201 480 201C440 201 400 201 360 201C320 201 280 201 240 201C200 201 160 201 120 201C80 201 40 201 20 201L0 201Z" fill="#d3782b"></path><path d="M0 162L20 162.8C40 163.7 80 165.3 120 167.8C160 170.3 200 173.7 240 172.7C280 171.7 320 166.3 360 164.8C400 163.3 440 165.7 480 167.3C520 169 560 170 600 170.2C640 170.3 680 169.7 720 170.7C760 171.7 800 174.3 840 175.3C880 176.3 920 175.7 940 175.3L960 175L960 201L940 201C920 201 880 201 840 201C800 201 760 201 720 201C680 201 640 201 600 201C560 201 520 201 480 201C440 201 400 201 360 201C320 201 280 201 240 201C200 201 160 201 120 201C80 201 40 201 20 201L0 201Z" fill="#a2431c"></path><path d="M0 187L20 185.3C40 183.7 80 180.3 120 180.8C160 181.3 200 185.7 240 185.7C280 185.7 320 181.3 360 180C400 178.7 440 180.3 480 182.5C520 184.7 560 187.3 600 188.7C640 190 680 190 720 187.8C760 185.7 800 181.3 840 180.2C880 179 920 181 940 182L960 183L960 201L940 201C920 201 880 201 840 201C800 201 760 201 720 201C680 201 640 201 600 201C560 201 520 201 480 201C440 201 400 201 360 201C320 201 280 201 240 201C200 201 160 201 120 201C80 201 40 201 20 201L0 201Z" fill="#6d0d0d"></path></svg>