<svg id="visual" viewBox="0 0 960 300" width="960" height="300" xmlns="http://www.w3.org/2000/svg" xmlns:xlink="http://www.w3.org/1999/xlink" version="1.1"><path d="M0 214L20 217.7C40 221.3 80 228.7 120 230.3C160 232 200 228 240 223.7C280 219.3 320 214.7 360 214.2C400 213.7 440 217.3 480 221C520 224.7 560 228.3 600 227.3C640 226.3 680 220.7 720 216.2C760 211.7 800 208.3 840 208.2C880 208 920 211 940 212.5L960 214L960 301L940 301C920 301 880 301 840 301C800 301 760 301 720 301C680 301 640 301 600 301C560 301 520 301 480 301C440 301 400 301 360 301C320 301 280 301 240 301C200 301 160 301 120 301C80 301 40 301 20 301L0 301Z" fill="#ffb23e"></path><path d="M0 235L20 236.3C40 237.7 80 240.3 120 242.2C160 244 200 245 240 245C280 245 320 244 360 242C400 240 440 237 480 238.3C520 239.7 560 245.3 600 245.3C640 245.3 680 239.7 720 238.3C760 237 800 240 840 242.2C880 244.3 920 245.7 940 246.3L960 247L960 301L940 301C920 301 880 301 840 301C800 301 760 301 720 301C680 301 640 301 600 301C560 301 520 301 480 301C440 301 400 301 360 301C320 301 280 301 240 301C200 301 160 301 120 301C80 301 40 301 20 301L0 301Z" fill="#bb5d23"></path><path d="M0 271L20 272.5C40 274 80 277 120 277.2C160 277.3 200 274.7 240 271.7C280 268.7 320 265.3 360 266.7C400 268 440 274 480 276.7C520 279.3 560 278.7 600 277.2C640 275.7 680 273.3 720 271.3C760 269.3 800 267.7 840 267C880 266.3 920 266.7 940 266.8L960 267L960 301L940 301C920 301 880 301 840 301C800 301 760 301 720 301C680 301 640 301 600 301C560 301 520 301 480 301C440 301 400 301 360 301C320 301 280 301 240 301C200 301 160 301 120 301C80 301 40 301 20 301L0 301Z" fill="#6d0d0d"></path></svg>