<svg id="visual" viewBox="0 0 960 300" width="960" height="300" xmlns="http://www.w3.org/2000/svg" xmlns:xlink="http://www.w3.org/1999/xlink" version="1.1"><path d="M0 102L40 98.2C80 94.3 160 86.7 240 83.7C320 80.7 400 82.3 480 86.3C560 90.3 640 96.7 720 95C800 93.3 880 83.7 920 78.8L960 74L960 0L920 0C880 0 800 0 720 0C640 0 560 0 480 0C400 0 320 0 240 0C160 0 80 0 40 0L0 0Z" fill="#f29a16"></path><path d="M0 59L40 57.2C80 55.3 160 51.7 240 47.7C320 43.7 400 39.3 480 40.2C560 41 640 47 720 47.2C800 47.3 880 41.7 920 38.8L960 36L960 0L920 0C880 0 800 0 720 0C640 0 560 0 480 0C400 0 320 0 240 0C160 0 80 0 40 0L0 0Z" fill="#420c0c"></path></svg>