<svg id="visual" viewBox="0 0 960 50" width="960" height="50" xmlns="http://www.w3.org/2000/svg" xmlns:xlink="http://www.w3.org/1999/xlink" version="1.1"><path d="M0 26L26.7 25.7C53.3 25.3 106.7 24.7 160 23.2C213.3 21.7 266.7 19.3 320 18.2C373.3 17 426.7 17 480 18.2C533.3 19.3 586.7 21.7 640 21.7C693.3 21.7 746.7 19.3 800 17.8C853.3 16.3 906.7 15.7 933.3 15.3L960 15L960 51L933.3 51C906.7 51 853.3 51 800 51C746.7 51 693.3 51 640 51C586.7 51 533.3 51 480 51C426.7 51 373.3 51 320 51C266.7 51 213.3 51 160 51C106.7 51 53.3 51 26.7 51L0 51Z" fill="#f29a16"></path><path d="M0 23L26.7 25C53.3 27 106.7 31 160 30.7C213.3 30.3 266.7 25.7 320 24.5C373.3 23.3 426.7 25.7 480 25.7C533.3 25.7 586.7 23.3 640 22.3C693.3 21.3 746.7 21.7 800 22.2C853.3 22.7 906.7 23.3 933.3 23.7L960 24L960 51L933.3 51C906.7 51 853.3 51 800 51C746.7 51 693.3 51 640 51C586.7 51 533.3 51 480 51C426.7 51 373.3 51 320 51C266.7 51 213.3 51 160 51C106.7 51 53.3 51 26.7 51L0 51Z" fill="#a0481f"></path><path d="M0 32L26.7 33.3C53.3 34.7 106.7 37.3 160 38.8C213.3 40.3 266.7 40.7 320 39.3C373.3 38 426.7 35 480 33.3C533.3 31.7 586.7 31.3 640 31.8C693.3 32.3 746.7 33.7 800 34.5C853.3 35.3 906.7 35.7 933.3 35.8L960 36L960 51L933.3 51C906.7 51 853.3 51 800 51C746.7 51 693.3 51 640 51C586.7 51 533.3 51 480 51C426.7 51 373.3 51 320 51C266.7 51 213.3 51 160 51C106.7 51 53.3 51 26.7 51L0 51Z" fill="#420c0c"></path></svg>