<svg id="visual" viewBox="0 0 960 300" width="960" height="300" xmlns="http://www.w3.org/2000/svg" xmlns:xlink="http://www.w3.org/1999/xlink" version="1.1"><path d="M0 196L40 199.8C80 203.7 160 211.3 240 214.3C320 217.3 400 215.7 480 211.7C560 207.7 640 201.3 720 203C800 204.7 880 214.3 920 219.2L960 224L960 301L920 301C880 301 800 301 720 301C640 301 560 301 480 301C400 301 320 301 240 301C160 301 80 301 40 301L0 301Z" fill="#f29a16"></path><path d="M0 239L40 240.8C80 242.7 160 246.3 240 250.3C320 254.3 400 258.7 480 257.8C560 257 640 251 720 250.8C800 250.7 880 256.3 920 259.2L960 262L960 301L920 301C880 301 800 301 720 301C640 301 560 301 480 301C400 301 320 301 240 301C160 301 80 301 40 301L0 301Z" fill="#420c0c"></path></svg>